<?xml version="1.0" encoding="utf-8"?>
<!-- Generator: Adobe Illustrator 23.0.6, SVG Export Plug-In . SVG Version: 6.00 Build 0)  -->
<svg version="1.1" id="Ebene_1" xmlns="http://www.w3.org/2000/svg" xmlns:xlink="http://www.w3.org/1999/xlink" x="0px" y="0px"
	 viewBox="0 0 397.9 167.6" style="enable-background:new 0 0 397.9 167.6;" xml:space="preserve">
<style type="text/css">
	.st0{fill:#13303B;}
	.st1{fill:#13303B;}
</style>
<g>
	<path class="st0" d="M116.6,86.1c0-1,0.9-1.7,1.9-1.7c1.1,0,2,0.8,2,1.7c0,1.7,1.3,3.3,3.9,3.3c2.4,0,4-1.4,4-3.4
		c0-1.6-0.4-3-2.7-4.6l-1-0.6c-2.5-1.4-3.2-1.9-3.9-2.3c-2.4-1.6-3.9-3.5-3.9-6.4c0-4.2,3.5-6.7,7.5-6.7c4.2,0,7.5,2.5,7.5,6.5
		c0,1-0.9,1.7-2,1.7s-2-0.8-2-1.7c0-1.7-1.1-3-3.6-3s-3.6,1.6-3.6,3.2c0,0.8,0,2,2,3.4c0.6,0.5,2.2,1.5,4.8,3
		c2.9,1.7,4.7,4.3,4.7,7.5c0,4.4-3.9,6.9-7.9,6.9C119.6,92.8,116.6,89.5,116.6,86.1"/>
	<path class="st0" d="M136.1,85.1v-12c0-4.3,3.5-7.7,8-7.7c4.1,0,7.5,3.2,7.9,7c0,0.8-0.8,1.8-1.8,1.9c-1.1,0.1-2-0.6-2.2-1.6
		c-0.2-2.2-1.9-3.8-4-3.8c-2.2,0-4.1,1.9-4.1,4.3v12c0,2.3,1.8,4.3,4.1,4.3c2,0,3.8-1.7,4-3.8c0.1-1,1.1-1.7,2.2-1.6
		c1,0.1,1.7,1.1,1.8,1.9c-0.5,3.9-4.1,7-7.9,7C139.6,92.8,136.1,89.4,136.1,85.1"/>
	<path class="st0" d="M171.6,67.1V91c0,1-0.9,1.8-2,1.8s-1.9-0.8-1.9-1.8V79.8h-8V91c0,1-0.9,1.8-1.9,1.8c-1.1,0-2-0.8-2-1.8V67.1
		c0-1,0.9-1.7,2-1.7s1.9,0.8,1.9,1.7v9.2h8v-9.2c0-1,0.9-1.7,1.9-1.7C170.7,65.4,171.6,66.1,171.6,67.1"/>
	<path class="st0" d="M177.2,85.1v-18c0-1,0.9-1.7,2-1.7s1.9,0.8,1.9,1.7v18c0,2.3,1.8,4.2,4,4.2s4.1-1.9,4.1-4.2v-18
		c0-1,0.9-1.7,2-1.7s1.9,0.8,1.9,1.7v18c0,4.3-3.5,7.7-8,7.7C180.8,92.8,177.2,89.3,177.2,85.1"/>
	<path class="st0" d="M214.7,67.1V91c0,1-0.9,1.8-2,1.8s-1.9-0.8-1.9-1.8V79.8h-8V91c0,1-0.9,1.8-1.9,1.8c-1.1,0-2-0.8-2-1.8V67.1
		c0-1,0.9-1.7,2-1.7s1.9,0.8,1.9,1.7v9.2h8v-9.2c0-1,0.9-1.7,1.9-1.7C213.8,65.4,214.7,66.1,214.7,67.1"/>
	<path class="st0" d="M11.2,86.1c0-1,0.9-1.7,1.9-1.7c1.1,0,2,0.8,2,1.7c0,1.7,1.3,3.3,3.9,3.3c2.4,0,4-1.4,4-3.4
		c0-1.6-0.4-3-2.7-4.6l-1-0.6c-2.5-1.4-3.2-1.9-3.9-2.3c-2.4-1.6-3.9-3.5-3.9-6.4c0-4.2,3.5-6.7,7.5-6.7c4.2,0,7.5,2.5,7.5,6.5
		c0,1-0.9,1.7-2,1.7s-2-0.8-2-1.7c0-1.7-1.1-3-3.6-3s-3.6,1.6-3.6,3.2c0,0.8,0,2,2,3.4c0.6,0.5,2.2,1.5,4.8,3
		c2.9,1.7,4.7,4.3,4.7,7.5c0,4.4-3.9,6.9-7.9,6.9C14.1,92.8,11.2,89.5,11.2,86.1"/>
	<path class="st0" d="M35,76.9h4c2,0,3.7-1.8,3.7-3.9c0-2.2-1.7-3.9-3.7-3.9h-4V76.9z M31,91V67.3c0-1,0.9-1.7,2-1.7h6
		c4.2,0,7.7,3.3,7.7,7.4s-3.4,7.4-7.7,7.4h-4V91c0,1-0.9,1.8-2,1.8C31.9,92.8,31,92,31,91"/>
	<path class="st0" d="M53.9,73.1v12c0,2.3,1.8,4.3,4.1,4.3c2.2,0,4-1.9,4-4.3v-12c0-2.3-1.8-4.3-4-4.3
		C55.7,68.8,53.9,70.8,53.9,73.1 M50,85.1v-12c0-4.3,3.6-7.7,8-7.7s8,3.5,8,7.7v12c0,4.3-3.6,7.7-8,7.7S50,89.4,50,85.1"/>
	<path class="st0" d="M79.2,76.6c2,0,3.6-1.7,3.6-3.8c0-2.1-1.6-3.8-3.6-3.8h-4.3v7.5L79.2,76.6L79.2,76.6z M86.6,90.6
		c0.2,1-0.5,2.3-1.9,2.3c-0.8,0-1.6-0.5-1.9-1.2L79.2,80c0,0-0.5,0.1-4.4,0.1v11c0,0.9-0.9,1.7-2,1.7s-2-0.8-2-1.7V67.3
		c0-0.9,0.9-1.7,2-1.7h6.3c4.1,0,7.5,3.2,7.5,7.3c0,2.7-1.5,5-3.8,6.3L86.6,90.6L86.6,90.6z"/>
	<path class="st0" d="M102.8,65.6c1.1,0,2,0.8,2,1.7c0,1-0.9,1.8-2,1.8h-4.3v22c0,1-0.9,1.8-2,1.8s-1.9-0.8-1.9-1.8v-22h-4.3
		c-1.1,0-2-0.8-2-1.8c0-0.9,0.9-1.7,2-1.7H102.8z"/>
	<path class="st1" d="M301.9,60.5c3.1-1.7,6.1-2.9,9.1-3.7c3-0.8,5.9-1.1,8.6-1.1c2.7,0,5.1,0.1,7.4-0.1c2.3-0.2,4.3-0.7,6.1-1.4
		c3.6-1.3,6.4-3,8.3-4.7c1.9-1.7,3-3.3,3.8-4.4c0.5-0.8,0.4-0.1-0.5,1.6c-0.9,1.6-2.8,4.1-5.9,6.1c-1.5,1-3.2,1.9-5.1,2.6
		c-1.9,0.8-3.9,1.3-6,1.5c-2.1,0.3-4.2,0.3-6.1,0.3c-1.9,0-3.8,0-5.4,0.2c-4.2,0.5-7,1.5-8.7,2.3c-0.4,0.2-0.8,0.4-1.2,0.5
		c-0.3,0.2-0.6,0.3-0.8,0.4c-0.4,0.3-0.7,0.4-0.8,0.6c-0.1,0.1-0.7,0.4-1.5,1c-0.4,0.3-0.9,0.6-1.5,1s-1.2,0.9-1.9,1.4
		c-1.4,1.1-3,2.6-4.9,4.3c-1.9,1.8-4,3.9-6.6,6s-5.9,4.1-9.8,5.3c-1,0.2-2,0.6-3,0.8c-1,0.2-2,0.3-3.1,0.5c-1.1,0.1-2.1,0.1-3.2,0.2
		c-1.1,0-2.1-0.1-3.2-0.1c-2.2-0.1-4.4-0.4-6.6-0.8s-4.5-1-6.7-1.9c-2.2-0.8-4.5-1.9-6.5-3.3c-0.5-0.3-1-0.7-1.5-1.1l-0.4-0.3
		l-0.2-0.1l-0.3-0.2c-0.3-0.3-0.7-0.7-0.9-1.1c-0.9-1.7-0.6-3.9,0.9-5.4c0.2-0.2,0.5-0.3,0.8-0.5c3.7-2.3,6.4-4,8.8-5.7
		c1.2-0.8,2.4-1.7,3.6-2.5c0.6-0.4,1.1-0.9,1.7-1.4s1.2-1,1.8-1.6c3.1-2.9,6.6-6.3,10.4-10c3.8-3.7,7.9-7.8,12.2-12
		c4.3-4.2,8.8-8.7,13.4-13.2c2.3-2.3,4.6-4.5,7-6.8c1.2-1.1,2.3-2.3,3.5-3.4l0.9-0.9c0.5-0.5,1.1-1,1.8-1.2c1.4-0.5,3-0.1,4,0.9
		c2.5,2.4,5,4.7,7.5,7.1c1.2,1.2,2.4,2.3,3.6,3.5l0.9,0.8c0.1,0.1,0.2,0.2,0.3,0.2c0.2,0.1,0.6,0,0.7-0.2c0.5-0.4,0.9-0.9,1.3-1.3
		c0.3-0.3,1.1-1.2,2-1.5s1.8-0.3,2.6,0.1c0.4,0.2,0.7,0.4,1.1,0.7c0.2,0.2,0.5,0.5,0.7,0.7c1.4,1.5,2.7,2.8,3.9,4
		c2.4,2.4,4.6,4.5,7.3,7c6.2,5.8,13,12.4,20,19.2c3.5,3.5,7,7,10.6,10.5c1.8,1.8,3.5,3.6,5.3,5.3l2.7,2.7l0.7,0.7l0.2,0.2l0.3,0.3
		c0.2,0.2,0.4,0.4,0.5,0.7c0.6,1,0.9,2.3,0.7,3.4s-0.7,2.2-1.6,3c-0.8,0.8-2,1.3-3.1,1.4h-0.4h-0.2h-0.5h-0.9H378
		c-2.5,0-4.9,0.1-7.4,0.1c-4.8,0.1-8.6,0.1-13.2,0.2c-9.2,0.1-15.7,0.1-23,0.1c-29.2-0.1-39.3-1,3.5-1.9c9.8-0.2,18-1.6,31.8-2.1
		c3.2-0.1,6.6-0.2,10.1-0.3h1.3h0.3h0.2h0.1c0.1,0,0.2,0,0.3,0c0.3-0.1,0.6-0.4,0.8-0.7c0.1-0.4,0.1-0.7-0.1-1
		c0-0.1-0.1-0.2-0.2-0.2c-0.1-0.1-0.3-0.3-0.4-0.4c-0.3-0.3-0.6-0.6-0.8-0.9c-4.4-4.5-8.1-8.3-9.6-10c-3-3.2-8.5-8.8-10.9-10.8
		c-2.3-1.9-8.3-7.4-24.7-23.6c-1.3-1.3-2.5-2.5-3.7-3.7c-0.2-0.3-0.5-0.5-0.7-0.7c0,0,0,0-0.1,0s-0.1,0-0.1,0
		c-0.5,0.5-1.1,1.1-1.6,1.6l-0.3,0.3c-0.1,0.1-0.3,0.2-0.4,0.4c-0.3,0.2-0.6,0.4-0.9,0.6c-0.6,0.3-1.3,0.4-2,0.4s-1.4-0.3-1.9-0.6
		c-0.3-0.2-0.6-0.4-0.8-0.6l-0.5-0.4c-0.5-0.5-1-1-1.5-1.4c-2-1.9-3.8-3.6-5.5-5.2c-1.6-1.6-3.1-3-4.4-4.2c-0.1-0.1-0.3-0.2-0.4-0.2
		c-0.1,0-0.2,0-0.2,0.1l-0.1,0.1c-0.1,0.1-0.2,0.2-0.3,0.3c-0.9,0.8-1.6,1.5-2.3,2.1c-3.3,2.9-10.2,9.9-11.3,11.4
		s-7.9,8.9-22.9,23.4c-2.1,2-4.8,4.5-7.6,7c-1.4,1.3-2.9,2.5-4.4,3.8c-0.8,0.6-1.6,1.3-2.4,1.8s-1.5,1-2.2,1.5
		c-5.8,3.8-9.9,5.6-10.2,5.8c-0.3,0.2-0.7,0.4-1.1,0.7c-0.2,0.2-0.3,0.4-0.4,0.8c0,0.3,0.1,0.7,0.3,1c0.1,0.1,0.1,0.1,0.2,0.2
		l0.4,0.3c0.3,0.2,0.6,0.4,0.9,0.6c0.6,0.4,1.2,0.8,1.8,1.1c3.7,2,7.8,3.2,11.7,3.9c1.9,0.3,3.9,0.6,5.7,0.6c0.9,0,1.9,0.1,2.7,0.1
		c0.9,0,1.8-0.1,2.6-0.1c3.4-0.3,6.5-1.2,9.1-2.4c2.6-1.2,4.8-2.8,6.6-4.3c1.8-1.5,3.4-2.9,4.7-4s4.2-3.3,4.2-3.2
		C296.3,64,298.7,62.3,301.9,60.5"/>
	<path class="st0" d="M32.5,146.2c0-1.9,1.7-3.4,3.8-3.4c2.2,0,4,1.5,4,3.4c0,3.3,2.6,6.4,7.6,6.4c4.8,0,7.8-2.7,7.8-6.7
		c0-3.2-0.7-6-5.3-9l-2-1.2c-4.9-2.8-6.3-3.7-7.7-4.6c-4.8-3.2-7.8-7-7.8-12.6c0-8.3,6.9-13.2,14.8-13.2c8.3,0,14.8,4.9,14.8,12.8
		c0,1.9-1.7,3.4-3.9,3.4c-2.2,0-3.9-1.5-3.9-3.4c0-3.4-2.2-5.9-7-5.9c-4.9,0-7,3.2-7,6.3c0,1.6,0,3.9,4,6.7c1.2,1,4.3,2.9,9.5,5.8
		c5.8,3.4,9.3,8.5,9.3,14.8c0,8.7-7.6,13.6-15.6,13.6C38.3,159.5,32.5,153,32.5,146.2"/>
	<path class="st0" d="M95.2,105.9c2.2,0,3.9,1.5,3.9,3.4s-1.7,3.5-3.9,3.5h-8.5V156c0,1.9-1.8,3.5-4,3.5c-2.1,0-3.8-1.6-3.8-3.5
		v-43.3h-8.5c-2.2,0-3.9-1.6-3.9-3.5s1.7-3.4,3.9-3.4L95.2,105.9L95.2,105.9z"/>
	<path class="st0" d="M150.5,105.5c-2.2,0-4,1.6-4,3.5v47c0,1.9,1.7,3.5,3.8,3.5c2.2,0,4-1.6,4-3.5v-47
		C154.3,107.1,152.6,105.5,150.5,105.5"/>
	<path class="st0" d="M135.4,155.7c0,1.9-1.7,3.4-3.9,3.4h-20.9c-2.1,0-3.8-1.5-3.8-3.4v-46.4c0-1.9,1.7-3.4,3.8-3.4h20.6
		c2.2,0,3.9,1.5,3.9,3.4s-1.7,3.5-3.9,3.5h-16.7V127h14.6c2.2,0,3.9,1.6,3.9,3.5s-1.7,3.4-3.9,3.4h-14.6v18.2h16.9
		C133.7,152.1,135.4,153.6,135.4,155.7"/>
	<path class="st0" d="M192.6,157.6l-17.2-34.5l0.7,33c0,1.9-1.7,3.5-3.9,3.5c-2.1,0-3.9-1.6-3.9-3.5v-47.2c0-1.9,1.9-3.4,3.9-3.4
		c1.4,0,2.8,0.9,3.4,1.9l17.2,34.4l-0.7-32.9c0-1.9,1.7-3.4,3.9-3.4c2.2,0,3.9,1.5,3.9,3.4V156c0,1.6-1.3,3-3,3.4l0.2-0.1
		c-0.5,0.1-0.7,0.1-1,0.1C194.7,159.5,193.2,158.7,192.6,157.6"/>
	<path class="st0" d="M242,155.7c0,1.9-1.7,3.4-3.9,3.4h-20.9c-2.1,0-3.8-1.5-3.8-3.4v-46.4c0-1.9,1.7-3.4,3.8-3.4h20.6
		c2.2,0,3.9,1.5,3.9,3.4s-1.7,3.5-3.9,3.5h-16.7V127h14.7c2.2,0,3.9,1.6,3.9,3.5s-1.7,3.4-3.9,3.4h-14.6v18.2h16.9
		C240.3,152.1,242,153.6,242,155.7"/>
	<path class="st0" d="M267.5,127.5c3.9,0,7-3.3,7-7.4s-3.1-7.4-7-7.4h-8.4v14.8H267.5z M282.2,155.1c0.4,2-1,4.5-3.7,4.5
		c-1.6,0-3.1-0.9-3.7-2.3l-7-23c-0.1,0.1-1,0.2-8.7,0.2v21.7c0,1.9-1.7,3.4-3.9,3.4c-2.1,0-3.9-1.6-3.9-3.4v-46.9
		c0-1.9,1.8-3.4,3.9-3.4h12.3c8.1,0,14.8,6.4,14.8,14.3c0,5.3-3,9.9-7.5,12.5L282.2,155.1L282.2,155.1z"/>
</g>
</svg>
